<svg width="17" height="20" viewBox="0 0 17 20" fill="none" xmlns="http://www.w3.org/2000/svg">
<g clip-path="url(#clip0_1711_898)">
<path fill-rule="evenodd" clip-rule="evenodd" d="M5.16296 17.1515L5.66667 16.2227C4.65926 15.8511 3.77778 15.3558 2.95926 14.6747L0 19.9998L5.16296 17.1515ZM7.05185 13.7459L8.5 11.1453V5.07715L4.40741 12.1979L4.47037 12.2598C5.16296 13.0028 6.10741 13.4982 7.05185 13.7459Z" fill="#F2F2F2"/>
<path fill-rule="evenodd" clip-rule="evenodd" d="M11.7741 17.1519H5.16296L0 20.0002H17L11.7741 17.1519Z" fill="#F2F2F2"/>
<path d="M14.1667 8.35913C14.1667 6.81115 13.537 5.44892 12.5296 4.39629C11.5222 3.40557 10.0741 2.78638 8.5 2.78638C6.92593 2.78638 5.54074 3.40557 4.47037 4.39629C3.46296 5.44892 2.83333 6.81115 2.83333 8.35913C2.83333 9.90712 3.46296 11.2694 4.47037 12.322C5.47778 13.3127 6.92593 13.9319 8.5 13.9319C10.0741 13.9319 11.4593 13.3127 12.5296 12.322C13.537 11.2694 14.1667 9.90712 14.1667 8.35913ZM14.4815 2.47678C15.9926 3.96285 17 6.06811 17 8.35913C17 10.6502 16.0556 12.7554 14.4815 14.2415C12.9074 15.7276 10.8296 16.7183 8.5 16.7183C6.17037 16.7183 4.02963 15.7895 2.51852 14.2415C1.00741 12.6935 0 10.6502 0 8.35913C0 6.06811 0.944444 3.96285 2.51852 2.47678C4.09259 0.990712 6.17037 0 8.5 0C10.8296 0 12.9704 0.928793 14.4815 2.47678Z" fill="#F2F2F2"/>
<path fill-rule="evenodd" clip-rule="evenodd" d="M8.5 11.1453L11.7741 17.1515L17 19.9998L8.5 5.07715V11.1453Z" fill="#F2F2F2"/>
</g>
<defs>
<clipPath id="clip0_1711_898">
<rect width="17" height="20" fill="white"/>
</clipPath>
</defs>
</svg>
