<svg width="101" height="84" viewBox="0 0 101 84" fill="none" xmlns="http://www.w3.org/2000/svg">
<mask id="mask0_1913_597" style="mask-type:alpha" maskUnits="userSpaceOnUse" x="0" y="0" width="101" height="84">
<rect width="101" height="84" fill="#C4C4C4"/>
</mask>
<g mask="url(#mask0_1913_597)">
<ellipse cx="50.2376" cy="41.6528" rx="56.0585" ry="33.1255" transform="rotate(-33.6799 50.2376 41.6528)" fill="white"/>
<path opacity="0.32" fill-rule="evenodd" clip-rule="evenodd" d="M83.1664 13.7775L72.9998 23.3388L62.8332 13.7775L83.1664 13.7775ZM89.9503 13.1253C89.6365 11.089 87.8765 9.52979 85.7523 9.52979H60.2659C58.1494 9.52979 56.3945 11.0777 56.0714 13.1032L55.9995 13.1708L56.0541 13.2222C56.0304 13.4039 56.0182 13.5893 56.0182 13.7775L56.0182 31.9821C56.0182 34.3281 57.92 36.2298 60.2659 36.2298L85.7523 36.2298C88.0983 36.2298 90.0001 34.3281 90.0001 31.9821V13.7775C90.0001 13.5839 89.9871 13.3934 89.962 13.2066L89.9994 13.1715L89.9503 13.1253ZM85.7523 17.1657L73.0084 29.1508L72.9991 29.142L72.9905 29.1501L60.2659 17.1832L60.2659 31.9821L85.7523 31.9821V17.1657Z" fill="black"/>
<path fill-rule="evenodd" clip-rule="evenodd" d="M57.6419 33.0659L39.8542 49.7946L22.0664 33.0659L57.6419 33.0659ZM69.4875 31.9016C68.9288 28.3498 65.8544 25.6333 62.1456 25.6333L17.5497 25.6333C13.8367 25.6333 10.7596 28.3559 10.2059 31.9136L10.1091 32.0046L10.1827 32.0738C10.1394 32.3984 10.1171 32.7295 10.1171 33.0659L10.1171 64.9201C10.1171 69.025 13.4448 72.3527 17.5497 72.3527H62.1456C66.2505 72.3527 69.5782 69.025 69.5782 64.9201V33.0659C69.5782 32.7333 69.5564 32.4058 69.514 32.0848L69.5981 32.0056L69.4875 31.9016ZM62.1456 39.0145L39.8676 59.966L39.8531 59.9524L39.8397 59.965L17.5497 39.0022L17.5497 64.9201L62.1456 64.9201V39.0145Z" fill="#EB3333"/>
</g>
</svg>
