<svg width="74" height="102" viewBox="0 0 74 102" fill="none" xmlns="http://www.w3.org/2000/svg">
<path d="M22.2134 19.4004V15.5261H27.2194V19.4004V19.6831V20.1744C27.2194 26.872 24.2372 32.9589 19.431 37.371C16.7955 39.7901 13.6123 41.7057 10.0703 42.9424V37.9385C12.2366 36.9669 14.2019 35.6718 15.8912 34.1216C19.792 30.5409 22.2134 25.6033 22.2134 20.1744V19.6831V19.4004ZM46.749 19.4004V15.5261H51.7551V19.4004V19.6831V20.1744C51.7551 25.6033 54.1764 30.5409 58.0783 34.1216C59.7754 35.6795 61.7528 36.9801 63.9324 37.9529V42.9545C60.3771 41.7179 57.1818 39.7978 54.5386 37.371C49.7323 32.9589 46.7501 26.872 46.7501 20.1744V19.6831V19.4004H46.749ZM10.0703 51.1404C15.8194 49.6432 20.969 46.8057 25.0896 43.0241C28.1855 40.1821 30.6996 36.8057 32.4507 33.0638C33.5858 36.1443 35.1028 39.0272 36.9886 41.7455C38.8005 39.4048 40.2491 36.3243 41.5608 33.0682C43.3119 36.8079 45.8249 40.1832 48.9197 43.0241C53.0381 46.8045 58.1854 49.641 63.9313 51.1382V46.3265C59.5689 44.9739 55.6526 42.7061 52.4595 39.7746C47.1068 34.8613 43.7845 28.0854 43.7845 20.6348V0H38.7795L38.7784 20.6337C38.7784 24.2618 38.1568 28.4983 37.0063 31.793C35.8569 28.4983 35.2353 24.2662 35.2353 20.6337V0H30.2292L30.2248 20.6337C30.2237 28.0799 26.9025 34.8602 21.5498 39.7735C18.3545 42.7061 14.436 44.975 10.0703 46.3276V51.1404ZM32.0444 40.2616C30.7658 41.9453 29.3272 43.5187 27.7505 44.9662C22.9498 49.3738 16.8628 52.6012 10.0703 54.1193V58.8328C18.2463 57.234 25.5732 53.4635 31.2903 48.2156C32.5126 47.0938 33.6608 45.9047 34.7274 44.6548L34.5574 44.4042L34.5099 44.4738L34.5574 44.4031C33.6509 43.0649 32.8118 41.6826 32.0444 40.2616ZM39.4309 44.8249C40.4567 46.0129 41.5564 47.1446 42.7223 48.2167C48.4361 53.4624 55.7597 57.2318 63.9313 58.8317V54.1182C57.1432 52.5989 51.0606 49.3727 46.2621 44.9673C44.7484 43.5772 43.3627 42.0712 42.1228 40.4636C41.3852 41.8139 40.5825 43.1289 39.718 44.4053L39.7655 44.476L39.718 44.4064C39.6231 44.5455 39.5281 44.6857 39.4309 44.8249Z" fill="#EB3333"/>
<path d="M4.20668 80.0456C4.72892 77.3461 5.41127 74.3318 5.72594 71.6102H8.41336V84.2346H6.66886V79.2396L6.87422 74.7271C6.62359 76.179 5.64092 81.5285 4.39217 84.0922V84.0999H4.20668H4.02008V84.0922C2.77133 81.5285 1.78867 76.179 1.53914 74.7271L1.7445 79.2396V84.2346H0V71.6113H2.68742C3.00209 74.3318 3.68443 77.3461 4.20668 80.0456ZM44.7012 73.8118V74.3374V75.3598C44.7012 76.3667 44.2706 77.0976 43.5872 77.5702C44.3214 78.1311 44.7012 79.0022 44.7012 80.081V84.2126C43.4867 84.2126 42.271 84.2081 41.0554 84.2081V84.2126H39.0559V71.5881H41.0554V71.5925C42.271 71.5925 43.4867 71.5881 44.7012 71.5881V73.8118ZM41.0554 78.5849V82.4095H42.7005C42.7005 81.5914 42.7017 80.7743 42.7017 79.9551C42.7017 78.6666 41.8007 78.5451 41.0554 78.5849ZM41.0554 73.3922V76.7774C41.8007 76.8172 42.7017 76.7741 42.7017 75.4867V74.3385H42.7005V73.3922H41.0554ZM33.7064 84.2126H31.7069V71.5881H33.7064H35.6055H37.6404V84.2126H35.6055H33.7064ZM35.6055 73.3922H33.7429V82.4095H35.6055V73.3922ZM11.8284 84.2126H9.82994V71.5881H11.8295H13.7286H15.7635V84.2126H13.7286H11.8284ZM13.7275 73.3922H11.8648V82.4095H13.7275V73.3922ZM48.0224 84.2126H46.0228V71.5881H48.0224H49.9215H51.9574V76.6549H49.9215V73.3922H48.0224V82.4095H49.9215V79.1469H51.9574V84.2137H49.9215H48.0224V84.2126ZM19.1774 84.2126H17.1778V71.5881H19.1774H21.0765H23.1124V76.6549H21.0765V73.3922H19.1774V82.4095H21.0765V79.1469H23.1124V84.2137H21.0765H19.1774V84.2126ZM55.3714 84.2346H53.3729V71.6113H55.3725V76.5588L55.7048 76.5599C56.7891 76.5621 57.1391 75.4249 57.1391 74.5803V71.6113H59.1386V74.4986C59.1386 75.8268 58.6296 76.8216 57.6392 77.473C58.7124 78.204 59.1386 79.1204 59.1386 80.4475V84.2346H57.138V80.3658C57.138 79.5488 56.7361 78.5584 55.7203 78.5661L55.3725 78.5694V84.2346H55.3714ZM73.1686 70.0976H68.7698V68.6191H73.1686V70.0976ZM67.9373 84.2346V71.6113H69.7182V78.9879L71.7719 71.6113H74V84.2357H72.2003V75.4525L69.747 84.2523L67.9373 84.2346ZM60.4591 84.2346V71.6113H62.2401V78.9879L64.2937 71.6113H66.5229V84.2357H64.7232V75.4525L62.2699 84.2523L60.4591 84.2346ZM26.5264 84.2346H24.5268V71.6113H26.5264V76.5588L26.8587 76.5599C27.9429 76.5621 28.2929 75.4249 28.2929 74.5803V71.6113H30.2925V74.4986C30.2925 75.8268 29.7835 76.8216 28.7931 77.473C29.8663 78.204 30.2925 79.1204 30.2925 80.4475V84.2346H28.2929V80.3658C28.2929 79.5488 27.8911 78.5584 26.8753 78.5661L26.5275 78.5694V84.2346H26.5264Z" fill="#EB3333"/>
<path d="M29.1622 101.788H27.1627V89.165H33.0962V101.788H31.0613V90.9681H29.1622V101.788ZM21.8199 101.788H19.8203V89.165H21.8199H23.7189H25.7538V94.2318H23.7189V90.9681H21.8199V99.9854H23.7189V96.7227H25.7538V101.789H23.7189H21.8199V101.788ZM36.5002 101.788H34.5017V89.165H36.5002H38.3993H40.4352V101.788H38.3993H36.5002ZM38.3982 90.9681H36.5355V99.9854H38.3982V90.9681ZM47.9885 89.165H54.1671V90.9681H52.077V101.788H50.0775V90.9681H47.9874V89.165H47.9885ZM47.4387 93.5473V94.0728V95.0952C47.4387 97.0374 46.3975 98.3954 44.4586 98.3954H43.7929V101.789H41.7933V89.165C43.6747 89.175 45.5572 89.165 47.4387 89.165V93.5473ZM43.7918 90.9681V96.5913C44.537 96.6311 45.4391 96.5085 45.4391 95.2211V94.0728H45.438V90.9681H43.7918Z" fill="#EB3333"/>
</svg>
