<svg width="193" height="51" viewBox="0 0 193 51" fill="none" xmlns="http://www.w3.org/2000/svg">
<path fill-rule="evenodd" clip-rule="evenodd" d="M24.6094 38.6609C25.4979 39.7338 26.4637 40.7683 27.5067 41.7262C32.3356 46.2858 38.478 49.5426 45.393 50.922V46.8605C39.6755 45.5578 34.5376 42.7607 30.4813 38.9292C29.1679 37.6647 27.9317 36.3237 26.85 34.8677L24.6094 38.6609Z" fill="white"/>
<path fill-rule="evenodd" clip-rule="evenodd" d="M9.70553 34.4076C14.2254 30.1546 17.0068 24.2923 17.0068 17.8552V0H21.2176V17.8552C21.2176 20.9971 21.7585 24.6754 22.7242 27.5108C23.69 24.6754 24.2309 20.9971 24.2309 17.8552V0H28.4417V17.8552C28.4417 24.2923 31.2231 30.1546 35.743 34.4076C38.4471 36.9365 41.7308 38.8906 45.4007 40.0784V44.2548C40.5718 42.9521 36.2065 40.4999 32.7683 37.243C30.1801 34.7908 28.0553 31.8788 26.5874 28.622C25.5057 31.419 24.2695 34.1011 22.7629 36.0935C21.2563 34.0628 20.0201 31.419 18.9384 28.622C17.4704 31.8405 15.3457 34.7908 12.7574 37.243C9.28059 40.4999 4.9539 42.9521 0.125 44.2548V40.0784C3.67907 38.8906 7.00135 36.9365 9.70553 34.4076Z" fill="white"/>
<path fill-rule="evenodd" clip-rule="evenodd" d="M35.1561 17.4724C35.1561 22.1852 37.2036 26.4383 40.4872 29.5419C41.9166 30.8829 43.5777 31.9941 45.3934 32.837V37.1667C42.4188 36.0939 39.7146 34.4463 37.5126 32.3389C33.4563 28.5073 30.9453 23.2581 30.9453 17.4724V13.4492H35.1561V17.4724Z" fill="white"/>
<path fill-rule="evenodd" clip-rule="evenodd" d="M10.2373 13.4102H14.4481V17.4333C14.4481 23.219 11.937 28.5066 7.88076 32.2999C5.67878 34.4073 2.9746 36.0548 0 37.1277V32.798C1.81567 31.955 3.47681 30.8439 4.90616 29.5028C8.18981 26.3992 10.2373 22.1462 10.2373 17.4333V13.4102Z" fill="white"/>
<path fill-rule="evenodd" clip-rule="evenodd" d="M18.543 34.8286C17.4613 36.2846 16.2637 37.664 14.9116 38.8901C10.8554 42.7217 5.75605 45.4804 0 46.8215V50.883C6.87635 49.5036 13.0573 46.2467 17.8862 41.6872C18.9293 40.7293 19.8951 39.6947 20.7836 38.6219L18.543 34.8286Z" fill="white"/>
<path fill-rule="evenodd" clip-rule="evenodd" d="M63.6989 40.806H63.583L60.6856 27.3188H56.3203V50.9214H59.8744V40.806L59.2177 34.0624H59.3722L61.9218 46.2086H65.2441L67.7165 34.0624H67.871L67.2916 40.806V50.9214H70.8456V27.3188H66.4803L63.6989 40.806ZM76.6017 47.5496V30.6906H80.1558V47.5496H76.6017ZM82.1646 50.9214C83.1304 50.9214 83.7098 50.27 83.7098 49.3888V28.8898C83.7098 27.9702 83.0917 27.3572 82.1646 27.3572H74.5929C73.6271 27.3572 73.0476 28.0085 73.0476 28.8898V49.3888C73.0476 50.3084 73.6657 50.9214 74.5929 50.9214H82.1646ZM96.1104 50.9214V43.1816H92.5564V47.5496H89.3113V30.6906H92.5564V34.0624H96.1104V27.3188H87.3025C86.3367 27.3188 85.7573 27.9702 85.7573 28.8515V49.3505C85.7573 50.2701 86.3754 50.8831 87.3025 50.8831H96.1104V50.9214ZM98.0034 27.3188V50.9214H101.557V30.6906H106.502V27.3188H98.0034ZM111.408 47.5496V30.6906H114.962V47.5496H111.408ZM117.01 50.9214C117.976 50.9214 118.555 50.27 118.555 49.3888V28.8898C118.555 27.9702 117.937 27.3572 117.01 27.3572H109.438C108.472 27.3572 107.893 28.0085 107.893 28.8898V49.3888C107.893 50.3084 108.511 50.9214 109.438 50.9214H117.01ZM124.157 30.6906H127.556V39.8098H124.157V30.6906ZM129.565 43.1433C130.531 43.1433 131.11 42.4919 131.11 41.6107V28.8515C131.11 27.9319 130.492 27.3188 129.565 27.3188H120.603V50.9214H124.157V43.1816H129.565V43.1433ZM143.356 50.9214V43.1816H139.802V47.5496H136.557V30.6906H139.802V34.0624H143.356V27.3188H134.548C133.583 27.3188 133.003 27.9702 133.003 28.8515V49.3505C133.003 50.2701 133.621 50.8831 134.548 50.8831H143.356V50.9214ZM145.249 27.3188V50.9214H148.803V30.6906H152.551V50.9214H156.105V27.3188H145.249ZM161.745 47.5496V30.6906H165.299V47.5496H161.745ZM167.308 50.9214C168.273 50.9214 168.853 50.27 168.853 49.3888V28.8898C168.853 27.9702 168.235 27.3572 167.308 27.3572H159.736C158.77 27.3572 158.191 28.0085 158.191 28.8898V49.3888C158.191 50.3084 158.809 50.9214 159.736 50.9214H167.308ZM174.454 30.6906H177.854V39.8098H174.454V30.6906ZM179.863 43.1433C180.829 43.1433 181.408 42.4919 181.408 41.6107V28.8515C181.408 27.9319 180.79 27.3188 179.863 27.3188H170.9V50.9214H174.454V43.1816H179.863V43.1433ZM182.644 30.6906H186.044V50.9214H189.598V30.6906H192.997V27.3188H182.644V30.6906Z" fill="white"/>
</svg>
