<svg width="33" height="26" viewBox="0 0 33 26" fill="none" xmlns="http://www.w3.org/2000/svg">
<path fill-rule="evenodd" clip-rule="evenodd" d="M26.4766 3.98414L16.9412 12.9518L7.4058 3.98413L26.4766 3.98414ZM32.8263 3.3598C32.5267 1.45601 30.8788 0 28.8908 0H4.98597C2.99632 0 1.34732 1.45845 1.04971 3.3646L0.996094 3.41503L1.03688 3.45339C1.01376 3.62702 1.00183 3.80418 1.00183 3.98413L1.00183 21.059C1.00183 23.2594 2.78559 25.0432 4.98597 25.0432H28.8908C31.0912 25.0432 32.8749 23.2594 32.8749 21.059V3.98414C32.8749 3.80581 32.8632 3.63021 32.8405 3.45808L32.8857 3.41562L32.8263 3.3598ZM28.8908 7.17263L16.9491 18.4033L16.9406 18.3953L16.9326 18.4027L4.98597 7.16735L4.98597 21.059L28.8908 21.059L28.8908 7.17263Z" fill="white"/>
</svg>
