<svg width="161" height="40" viewBox="0 0 161 40" fill="none" xmlns="http://www.w3.org/2000/svg">
<path d="M50.1309 10.6985H52.9899V14.2042C53.3844 13.0593 54.0646 12.1303 55.0303 11.4174C55.9961 10.7044 57.0943 10.3494 58.3251 10.3494C59.9297 10.3494 61.1634 10.6925 62.0232 11.3819C62.8829 12.0712 63.4777 12.9528 63.8016 14.0297C64.4052 12.8847 65.1796 11.9854 66.1218 11.3316C67.064 10.6778 68.1975 10.3494 69.5225 10.3494C71.4275 10.3494 72.9174 10.9292 73.9862 12.083C75.055 13.2398 75.5908 15.0562 75.5908 17.5324V29.2744H72.5199V18.2336C72.5199 16.3875 72.2019 15.0799 71.56 14.3077C70.9211 13.5356 69.9494 13.151 68.648 13.151C68.0886 13.151 67.5557 13.2693 67.0433 13.5031C66.531 13.7368 66.0776 14.074 65.683 14.5178C65.2885 14.9616 64.9734 15.5 64.7408 16.1301C64.5082 16.7603 64.3905 17.4614 64.3905 18.2336V29.2744H61.3224V18.2336C61.3224 16.3875 60.9956 15.0799 60.3449 14.3077C59.6942 13.5356 58.7284 13.151 57.4506 13.151C56.8912 13.151 56.3582 13.2693 55.8459 13.5031C55.3336 13.7368 54.8802 14.074 54.4856 14.5178C54.0911 14.9616 53.776 15.5 53.5434 16.1301C53.3108 16.7603 53.196 17.4614 53.196 18.2336V29.2744H50.125V10.6985H50.1309ZM88.6756 29.6265C87.489 29.6265 86.3613 29.4342 85.2925 29.0466C84.2237 28.662 83.2815 28.0763 82.4659 27.2952C81.6533 26.5113 80.9996 25.5261 80.5138 24.3339C80.0251 23.1416 79.7807 21.7512 79.7807 20.1625V19.4613C79.7807 17.9644 80.0251 16.6449 80.5138 15.5C81.0026 14.3551 81.6533 13.4025 82.4659 12.6451C83.2786 11.8848 84.2208 11.3138 85.2925 10.9292C86.3613 10.5446 87.489 10.3494 88.6756 10.3494C89.8622 10.3494 90.9899 10.5417 92.0587 10.9292C93.1275 11.3138 94.0697 11.8877 94.8823 12.6451C95.695 13.4054 96.3486 14.358 96.8374 15.5C97.3262 16.6449 97.5706 17.9644 97.5706 19.4613V20.1625C97.5706 21.7512 97.3262 23.1416 96.8374 24.3339C96.3486 25.5261 95.6979 26.5113 94.8823 27.2952C94.0697 28.0792 93.1275 28.662 92.0587 29.0466C90.9899 29.4312 89.8622 29.6265 88.6756 29.6265ZM88.6756 26.8219C89.3734 26.8219 90.0712 26.7006 90.7691 26.4551C91.4669 26.2095 92.0823 25.8249 92.6181 25.2983C93.154 24.7717 93.5898 24.0883 93.9254 23.2481C94.2611 22.4079 94.4319 21.3784 94.4319 20.1654V19.4643C94.4319 18.343 94.264 17.3845 93.9254 16.5917C93.5868 15.7958 93.1511 15.142 92.6181 14.6302C92.0823 14.1154 91.4669 13.7427 90.7691 13.509C90.0712 13.2753 89.3734 13.1569 88.6756 13.1569C87.9778 13.1569 87.28 13.2753 86.5822 13.509C85.8844 13.7427 85.269 14.1154 84.7331 14.6302C84.2002 15.145 83.7615 15.7988 83.4258 16.5917C83.0901 17.3875 82.9194 18.343 82.9194 19.4643V20.1654C82.9194 21.3813 83.0872 22.4079 83.4258 23.2481C83.7644 24.0883 84.2002 24.7717 84.7331 25.2983C85.269 25.8249 85.8844 26.2095 86.5822 26.4551C87.28 26.7006 87.9778 26.8219 88.6756 26.8219ZM108.382 29.6265C107.149 29.6265 106.086 29.4815 105.191 29.1886C104.295 28.8958 103.533 28.5052 102.906 28.0141C102.279 27.5231 101.79 26.9521 101.442 26.2953C101.092 25.6415 100.848 24.9403 100.709 24.1919H103.78C103.942 24.9403 104.378 25.5882 105.088 26.1385C105.797 26.6888 106.895 26.9609 108.382 26.9609C109.242 26.9609 109.963 26.884 110.546 26.7331C111.126 26.5823 111.598 26.3841 111.96 26.1385C112.319 25.893 112.581 25.6001 112.746 25.2628C112.908 24.9255 112.99 24.5676 112.99 24.1948C112.99 23.7984 112.914 23.4463 112.763 23.1446C112.613 22.8399 112.345 22.5647 111.96 22.3192C111.577 22.0736 111.053 21.8517 110.39 21.6535C109.728 21.4553 108.898 21.2867 107.896 21.1447C106.872 21.0056 105.947 20.8015 105.123 20.5323C104.298 20.2631 103.601 19.9081 103.029 19.4643C102.461 19.0205 102.017 18.488 101.704 17.8697C101.389 17.2514 101.233 16.497 101.233 15.6095C101.233 14.9083 101.384 14.2427 101.687 13.6125C101.99 12.9824 102.443 12.4203 103.047 11.9292C103.651 11.4381 104.396 11.0535 105.279 10.7724C106.162 10.4914 107.199 10.3523 108.382 10.3523C109.475 10.3523 110.429 10.4973 111.241 10.7902C112.054 11.0831 112.746 11.4736 113.317 11.9647C113.885 12.4558 114.336 13.0267 114.66 13.6806C114.986 14.3344 115.219 15.0355 115.357 15.784H112.289C112.104 14.9675 111.709 14.2989 111.103 13.7871C110.499 13.2723 109.592 13.0149 108.382 13.0149C106.872 13.0149 105.812 13.2664 105.208 13.7693C104.605 14.2722 104.301 14.8846 104.301 15.6095C104.301 16.0296 104.378 16.3934 104.528 16.6952C104.678 16.9999 104.934 17.2662 105.297 17.5028C105.656 17.7366 106.133 17.9289 106.728 18.0797C107.319 18.2306 108.058 18.3667 108.942 18.4821C110.081 18.6211 111.094 18.8253 111.977 19.0945C112.861 19.3637 113.606 19.7246 114.209 20.1802C114.813 20.6358 115.272 21.1891 115.587 21.8458C115.902 22.4996 116.058 23.2836 116.058 24.1948C116.058 24.9433 115.902 25.6444 115.587 26.2983C115.272 26.9521 114.801 27.526 114.174 28.0171C113.547 28.5082 112.749 28.8987 111.786 29.1916C110.82 29.4845 109.687 29.6295 108.385 29.6295L108.382 29.6265ZM122.86 29.6265C122.185 29.6265 121.608 29.3869 121.134 28.9076C120.657 28.4283 120.419 27.8514 120.419 27.174C120.419 26.4728 120.657 25.887 121.134 25.4226C121.611 24.9551 122.185 24.7214 122.86 24.7214C123.534 24.7214 124.111 24.9551 124.585 25.4226C125.062 25.89 125.301 26.4728 125.301 27.174C125.301 27.8514 125.062 28.4283 124.585 28.9076C124.108 29.3869 123.534 29.6265 122.86 29.6265ZM130.883 10.6985H133.742V14.2042C134.137 13.1066 134.793 12.1895 135.712 11.4529C136.631 10.7162 137.752 10.3494 139.077 10.3494C139.543 10.3494 139.919 10.373 140.211 10.4204C140.502 10.4677 140.761 10.5269 140.997 10.5949V13.4676C140.694 13.3522 140.399 13.2693 140.108 13.222C139.816 13.1747 139.416 13.151 138.904 13.151C138.206 13.151 137.555 13.2782 136.951 13.5356C136.348 13.793 135.824 14.148 135.382 14.6036C134.94 15.0592 134.59 15.6154 134.337 16.2692C134.081 16.923 133.954 17.636 133.954 18.4081V29.2744H130.883V10.6985ZM151.011 29.6265C148.779 29.6265 147.104 28.9845 145.988 27.6976C144.872 26.4107 144.312 24.4256 144.312 21.7393V10.6985H147.38V21.5648C147.38 23.2955 147.734 24.6031 148.443 25.4906C149.153 26.3781 150.31 26.8219 151.915 26.8219C152.775 26.8219 153.525 26.671 154.164 26.3663C154.803 26.0616 155.327 25.6652 155.734 25.1741C156.14 24.683 156.443 24.1238 156.64 23.4907C156.838 22.8606 156.938 22.2186 156.938 21.5618V10.6955H160.006V29.2715H157.147V25.7657C156.938 26.2805 156.652 26.7716 156.293 27.2361C155.934 27.7035 155.489 28.1118 154.968 28.4638C154.444 28.8159 153.852 29.094 153.19 29.304C152.527 29.5141 151.8 29.6206 151.011 29.6206V29.6265Z" fill="white"/>
<path d="M11.5663 33.4821H4.81928C2.19181 33.4821 0 31.8493 0 29.2411V1.48202C0 1.05022 0.339277 0.710938 0.771085 0.710938H30.0723C30.5041 0.710938 30.8434 1.05022 30.8434 1.48202V29.2411C30.8434 31.8493 28.6516 33.4821 26.0241 33.4821H23.1326C20.3219 33.4821 18.5157 34.0141 16.1928 36.3736C15.6858 36.8613 14.9783 37.6613 14.0723 38.7736C13.8013 39.0637 13.4281 39.2369 13.0316 39.2567C12.6351 39.2765 12.2465 39.1413 11.948 38.8796C11.6337 38.6001 11.5663 38.2127 11.5663 37.7943V33.4821ZM3.85543 4.56636V28.47C3.85543 29.1698 4.26217 29.6266 5.01205 29.6266H14.8434V32.9037C17.3629 30.6676 19.8323 29.6266 23.1326 29.6266H25.8314C26.5812 29.6266 26.988 29.1698 26.988 28.47V4.56636H3.85543Z" fill="white"/>
</svg>
